<svg xmlns="http://www.w3.org/2000/svg" xml:space="preserve" fill-rule="evenodd" stroke-linejoin="round" stroke-miterlimit="2" clip-rule="evenodd" viewBox="0 0 2000 2000">
  <path fill="#002147" fill-rule="nonzero" d="M817.06 1884.94c5-58.38 56.3-101.45 114.3-96.37 54.08 4.69 96.1 50.76 96.1 105.33q0 4.68-.42 9.36c-4.7 54.43-50.58 96.74-104.92 96.74-7.74 0-15.46-.87-23-2.55-51.3-11.45-86.62-59.87-82.06-112.51M594.26 1918l-.05.22c-52.98-23.27-77.58-86.21-54.5-139.5 16.56-38.69 54.64-63.89 96.54-63.89 14.48 0 28.8 3 42.06 8.83 53.04 23.25 77.7 86.19 54.7 139.56-20.06 46.29-70.34 72.07-119.4 61.25a94 94 0 0 1-19.36-6.47"/>
  <path fill="#ffd13a" fill-rule="nonzero" d="M1113.86 1896.58c-13.94-56.87 20.58-114.32 77.12-128.11 8.27-2.06 16.75-3.1 25.26-3.1 48.3 0 90.68 33.44 102.16 80.61 13.94 56.91-20.58 114.37-77.1 128.14l-.06.24a104 104 0 0 1-47.78.48c-39.16-8.64-70.12-39.09-79.6-78.26"/>
  <path fill="#002147" fill-rule="nonzero" d="M317.69 1738.36a106.2 106.2 0 0 1-7-149.67 105.2 105.2 0 0 1 78.04-34.79c26.2 0 51.48 9.84 70.86 27.55 42.68 39.25 45.8 106.78 6.94 149.85-38.94 42.92-106.06 46.11-148.84 7.06"/>
  <path fill="#ffb700" fill-rule="nonzero" d="M1398.27 1811.68c-31.12-49-16.7-115.07 31.98-146.45a105 105 0 0 1 56.9-16.8 105.3 105.3 0 0 1 88.76 48.9c31.4 49.22 17 114.87-31.94 146.48l.04-.24a104.3 104.3 0 0 1-79.62 14.38 105.8 105.8 0 0 1-66.12-46.27"/>
  <path fill="#002147" fill-rule="nonzero" d="M113.48 1478.67c-27.96-50.9-9.38-115.9 41.18-144.14a105 105 0 0 1 50.97-13.23 105.3 105.3 0 0 1 92.2 54.8 106.4 106.4 0 0 1 13.22 51.34c0 38.46-20.88 74.04-54.38 92.64a104.2 104.2 0 0 1-73.66 10.9 105 105 0 0 1-69.53-52.3"/>
  <path fill="#ff7c00" fill-rule="nonzero" d="M1640.55 1638.72c-45.44-36.03-53.44-103.2-17.76-149 35.94-45.5 102.62-53.43 148.12-17.62 45.76 36.27 53.44 102.92 17.56 148.95a104.7 104.7 0 0 1-105.54 37.74 102 102 0 0 1-42.38-20.07"/>
  <path fill="#002147" fill-rule="nonzero" d="M3.38 1166.32a107 107 0 0 1-1.6-18.42c0-51.26 37.02-95.52 87.26-104.3a105 105 0 0 1 18.3-1.61c50.86 0 94.83 37.1 103.65 87.47q1.65 9.26 1.66 18.68c0 51.16-36.96 95.34-87.1 104.1-14 2.56-27.77 2.12-40.99-.82-41.6-9.23-73.74-42.91-81.18-85.1"/>
  <path fill="#ff7c00" fill-rule="nonzero" d="M1812.27 1395.26c-54.66-18.98-84.2-79.75-65.48-134.77l.2.06c.2-.82.38-1.67.8-2.63 18.54-55.02 78.78-84.98 133.52-66.44 42.78 14.4 71.82 54.96 71.82 100.32 0 11.54-1.9 23.03-5.58 33.96-.18.85-.52 1.4-.66 2.02-.36.58-.46 1.24-.54 1.62-17.32 50.72-70.32 80.64-122.4 69.08a113 113 0 0 1-11.68-3.22"/>
  <path fill="#40b5ff" fill-rule="nonzero" d="M1.34 834.4c9.04-50.27 53-87.19 103.82-87.19 57.88 0 105.5 47.88 105.5 106.07q0 7.74-1.11 15.39c-9.42 57.4-64.14 96.88-121.25 87.43q-2.84-.37-5.62-1.04C28.4 942.89-7.52 889.6 1.34 834.4"/>
  <path fill="#f20c51" fill-rule="nonzero" d="M1789.27 1000.1v-.97c0-57.77 47.02-105.4 104.48-105.85h.96c57.46 0 104.85 47.28 105.29 105.05.46 58.16-46.7 106.44-104.55 107.02-7.96-.02-15.9-.9-23.68-2.61-47.74-10.68-82.12-53.45-82.5-102.64"/>
  <path fill="#5971f2" fill-rule="nonzero" d="M150.72 664.16a106 106 0 0 1-55.3-93.1c0-17.64 4.38-35 12.76-50.5A105.4 105.4 0 0 1 200.87 465c17.5 0 34.74 4.38 50.14 12.77a106.1 106.1 0 0 1 55.26 93.18c0 17.6-4.38 34.95-12.72 50.44-22.32 41.5-69.6 63.3-115.44 53.2a100 100 0 0 1-27.38-10.43"/>
  <path fill="#f20c51" fill-rule="nonzero" d="M1743.7 743c-19.35-54.77 9.51-115.86 63.95-135.43 54.5-19.42 115.24 9.6 134.7 64.33 19.34 54.78-9.52 115.87-63.96 135.42-54.48 19.44-115.26-9.56-134.7-64.31"/>
  <path fill="#5324b3" fill-rule="nonzero" d="M304.65 409.1c-38.96-43.5-35.94-110.54 7.1-149.77a105.2 105.2 0 0 1 70.94-27.6c29.7 0 58.06 12.63 78.04 34.73a106.15 106.15 0 0 1-7.08 149.58 104.5 104.5 0 0 1-93.68 25.17 106.6 106.6 0 0 1-55.32-32.11"/>
  <path fill="#ff7cff" fill-rule="nonzero" d="M1617.45 514.17a106.4 106.4 0 0 1-22.36-65.26c0-58.15 47.6-106 105.42-106 31.8 0 61.96 14.47 81.96 39.32 35.96 45.53 28.34 112.71-16.9 148.93a104.8 104.8 0 0 1-88.34 20.45 104.6 104.6 0 0 1-59.78-37.44"/>
  <path fill="#5324b3" fill-rule="nonzero" d="M533.95 219.13C510.87 165.46 535.61 103.2 589 79.97a105 105 0 0 1 41.78-8.68c42.02 0 80.2 25.27 96.82 64.08 23.08 53.7-1.66 116.13-55.08 139.38a105.13 105.13 0 0 1-138.56-55.62"/>
  <path fill="#ff7cff" fill-rule="nonzero" d="M1424.3 338.2c-48.6-31.46-62.9-97.52-31.71-146.44a105.4 105.4 0 0 1 88.64-48.58c20.28 0 40.14 5.87 57.18 16.93a106 106 0 0 1 48.32 89c0 20.37-5.84 40.3-16.84 57.41-23.78 37.2-68.32 55.72-111.3 46.27a100 100 0 0 1-34.28-14.6"/>
  <path fill="#9b54e6" fill-rule="nonzero" d="M811.74 114.22q-.33-4.1-.32-8.19C811.42 47.86 859.04 0 916.88 0c57.86 0 105.46 47.86 105.46 106.03 0 55-42.56 101.33-97.08 105.7-10.44.68-20.9-.1-31.12-2.34-45.16-10.05-78.72-48.82-82.4-95.17m373.18 119.65c-46.64-11.83-79.6-54.36-79.6-102.72 0-8.75 1.08-17.47 3.22-25.96 11.72-46.9 53.98-80.03 102.06-80.03 8.74 0 17.44 1.1 25.9 3.25l.22.04c56.02 14.36 90.4 72.52 76.14 128.86-13.9 55.16-69.62 89.7-124.88 77.44-1.06-.22-2.04-.64-3.06-.88"/>
  <path fill="#002147" fill-rule="nonzero" d="M972.4 1751.11c-40.16-.44-72.96-33.78-72.96-74.18 0-40.7 33.3-74.18 73.78-74.18q2.05 0 4.12.12c39.4 1.2 71.18 34.14 71.18 73.78q0 1.38-.06 2.75c-1.12 37.16-29.92 68.03-66.74 71.5q-4.66.43-9.32.21"/>
  <path fill="#ffd13a" fill-rule="nonzero" d="M1115.1 1671.32a75 75 0 0 1-2.9-20.57c0-33 21.94-62.22 53.52-71.25a73 73 0 0 1 19.16-2.53c40.5 0 73.84 33.5 73.84 74.24 0 32.64-21.42 61.63-52.5 71.06-38.9 11.14-80.02-11.84-91.12-50.95"/>
  <path fill="#002147" fill-rule="nonzero" d="M741.1 1706.69c-38.47-13.93-58.47-56.28-44.79-94.71 13.68-38.65 55.98-59.02 94.22-45.03a74.3 74.3 0 0 1 49.05 69.88c0 40.68-33.3 74.14-73.77 74.14a74 74 0 0 1-24.72-4.28"/>
  <path fill="#ffb700" fill-rule="nonzero" d="M1317.78 1602.38a74.4 74.4 0 0 1-12.6-41.46 74.4 74.4 0 0 1 32.72-61.61c33.64-22.6 79.8-13.4 102.3 20.4 22.53 33.79 13.47 80.2-20.1 102.9a73 73 0 0 1-34.35 12.15 73.5 73.5 0 0 1-67.97-32.38"/>
  <path fill="#002147" fill-rule="nonzero" d="M534.07 1593.84a74.37 74.37 0 0 1-13.96-104.02c24.58-32.34 71.24-38.68 103.46-14.04 32.16 24.71 38.46 71.63 13.96 104.02a73.5 73.5 0 0 1-51.94 28.92 72.6 72.6 0 0 1-51.52-14.88"/>
  <path fill="#ff7c00" fill-rule="nonzero" d="M1489.35 1473.99c-31.84-25.08-37.56-72.05-12.66-104.1 24.82-32.42 71.26-38.23 103.52-12.98 31.86 25.08 37.58 72.03 12.7 104.1a73.2 73.2 0 0 1-51.36 28.28 73.8 73.8 0 0 1-52.2-15.3"/>
  <path fill="#002147" fill-rule="nonzero" d="M371.03 1422.7a74.5 74.5 0 0 1-13.2-42.38 74.4 74.4 0 0 1 31.76-61.01 73.4 73.4 0 0 1 42.04-13.25 73.6 73.6 0 0 1 60.6 31.97 74 74 0 0 1 13.24 42.33 74.2 74.2 0 0 1-31.66 60.81 72.6 72.6 0 0 1-35.34 13.07 74.3 74.3 0 0 1-67.44-31.55"/>
  <path fill="#ff7c00" fill-rule="nonzero" d="M1612.39 1297.77c-29.34-10.47-49.06-38.54-49.06-69.85 0-8.5 1.44-16.92 4.28-24.9.4-.64.54-1.15.72-1.77 10.36-29.56 38.3-49.45 69.46-49.45 8.36 0 16.66 1.45 24.54 4.25 29.42 10.37 49.24 38.46 49.24 69.83 0 8.48-1.45 16.9-4.28 24.88l.02.22a9 9 0 0 1-.68 2 74.1 74.1 0 0 1-62.88 48.98 73 73 0 0 1-31.36-4.19"/>
  <path fill="#002147" fill-rule="nonzero" d="M268.29 1209.41c-11.74-38.93 10.4-80.67 49.1-92.54a74 74 0 0 1 21.52-3.23c32.36 0 61.12 21.47 70.48 52.62a75 75 0 0 1 3.24 21.7c0 38.16-29.36 70.38-67.16 73.72-34.66 3.15-67.06-18.78-77.18-52.26"/>
  <path fill="#f20c51" fill-rule="nonzero" d="M1674.55 1090c-40.5-.96-73.04-35.22-72.14-75.94 1.02-40.62 34.94-73.3 75.36-72.56 39.84.85 72.14 34.03 72.14 74.08l-.02 1.7.22-.03c-.94 37.55-29.92 68.82-67.1 72.42-2.74.26-5.52.28-8.46.34"/>
  <path fill="#40b5ff" fill-rule="nonzero" d="M308.3 1050.05c-39.81-.78-72.13-33.94-72.13-73.98q0-.9.02-1.79c.9-39.98 33.86-72.37 73.64-72.37l1.98.02c40.6.74 72.82 34.73 71.9 75.79-.8 37.48-29.78 68.73-66.9 72.17q-4.25.4-8.5.16"/>
  <path fill="#f20c51" fill-rule="nonzero" d="M1576.47 825.5c-11.76-38.86 10.3-80.56 48.9-92.5a73 73 0 0 1 21.66-3.28c40.46 0 73.76 33.48 73.76 74.16 0 40.7-33.3 74.16-73.76 74.16-32.36 0-61.12-21.42-70.56-52.55"/>
  <path fill="#5971f2" fill-rule="nonzero" d="M323.99 835.67c-38.16-13.72-58.38-56.55-44.8-94.94a74 74 0 0 1 69.02-47.83c40.5 0 73.84 33.52 73.84 74.24 0 8-1.3 15.96-3.82 23.54a73.9 73.9 0 0 1-62.64 48.91 73 73 0 0 1-31.6-3.92"/>
  <path fill="#ff7cff" fill-rule="nonzero" d="M1493.45 653.98a74.5 74.5 0 0 1-13.32-42.49 74.3 74.3 0 0 1 31.7-60.87c33.2-23.14 79.46-14.82 102.58 18.5a74.35 74.35 0 0 1-18.14 103.36 73.6 73.6 0 0 1-35.58 12.87 73.6 73.6 0 0 1-67.24-31.37"/>
  <path fill="#5971f2" fill-rule="nonzero" d="M405.65 636.8c-31.96-25.04-37.9-72.04-13.16-104.31 25.02-32 71.68-37.83 103.74-12.97 31.92 24.99 37.76 71.97 12.92 104.08a73.43 73.43 0 0 1-103.5 13.2"/>
  <path fill="#ff7cff" fill-rule="nonzero" d="M1361.9 516.22c-32.16-24.7-38.44-71.59-13.96-103.99 24.56-32.37 71.25-38.7 103.47-14.05a74.5 74.5 0 0 1 29.04 59.02c0 38.14-29.26 70.4-67.04 73.92a73.2 73.2 0 0 1-51.5-14.9"/>
  <path fill="#5324b3" fill-rule="nonzero" d="M545.2 473.75c-22.57-33.83-13.53-80.32 20.05-103.1 33.6-22.64 79.78-13.51 102.34 20.25a74.3 74.3 0 0 1 12.66 41.46 74.1 74.1 0 0 1-32.56 61.38 73.5 73.5 0 0 1-41.34 12.74 73.7 73.7 0 0 1-61.16-32.73"/>
  <path fill="#9b54e6" fill-rule="nonzero" d="M1194.74 425.5c-29.32-10.47-49.02-38.54-49.02-69.83 0-8.49 1.44-16.91 4.28-24.92a73.57 73.57 0 0 1 94.24-45c29.36 10.45 49.1 38.55 49.1 69.86 0 38.2-29.36 70.46-67.2 73.84a73 73 0 0 1-31.4-3.94"/>
  <path fill="#5324b3" fill-rule="nonzero" d="M728.3 362.44c-11.25-39.3 11.55-80.27 50.65-91.81 38.95-11.14 80.1 11.84 91.3 50.95a75 75 0 0 1 2.85 20.37c0 38.17-29.26 70.45-67.06 73.98-35.19 3.18-67.97-19.36-77.75-53.49"/>
  <path fill="#9b54e6" fill-rule="nonzero" d="M1007.98 389.8c-39.96-.73-72.44-34-72.44-74.17 0-40.7 33.3-74.18 73.78-74.18q1.8 0 3.6.08c39.44 1.3 71.16 34.28 71.16 73.96q0 1.27-.04 2.55c-1.24 39.76-34.1 71.8-73.66 71.8q-1.2-.01-2.4-.05"/>
  <path fill="#002147" fill-rule="nonzero" d="M744.63 1494.9c-29.88-15.1-42.16-52.22-27.2-82.3a61 61 0 0 1 54.5-33.89c9.5 0 18.88 2.24 27.36 6.52 29.9 15.1 42.17 52.24 27.2 82.32-13.4 26.89-44.63 40.06-73.11 30.83a80 80 0 0 1-8.75-3.48m164.49-5.55c1.5-32.51 28.52-58.43 60.9-58.43q1.53 0 3.06.08c32.24 1.52 57.92 28.61 57.92 61.07q0 1.56-.08 3.17c-1.5 32.52-28.52 58.46-60.9 58.46q-1.51 0-3.02-.08c-33.36-1.77-59.42-30.7-57.88-64.27m-344.37-138.13a61.34 61.34 0 0 1 7.72-86.27 60.5 60.5 0 0 1 39.1-14.35 60.6 60.6 0 0 1 46.74 22.12 61.24 61.24 0 0 1-7.72 86.26 60.3 60.3 0 0 1-57.84 11.25 59.6 59.6 0 0 1-28-19"/>
  <path fill="#ffd13a" fill-rule="nonzero" d="M1115.46 1481.65a61.14 61.14 0 0 1 34.66-79.27c31.2-12.18 66.84 3.54 79.04 34.87 12.04 31.4-3.68 67.22-34.88 79.45a61 61 0 0 1-22.08 4.18 60.9 60.9 0 0 1-56.74-39.23"/>
  <path fill="#002147" fill-rule="nonzero" d="M456.79 1147.04c-9.18-32.36 9.74-66.58 41.9-75.83 32.16-9.33 66.26 9.6 75.54 41.94 9.16 32.36-9.74 66.56-41.9 75.83a59.4 59.4 0 0 1-35.44-.46 61.6 61.6 0 0 1-40.1-41.48"/>
  <path fill="#ff7c00" fill-rule="nonzero" d="M1300.3 1389.83c-23.74-23.34-24.4-62.11-1.48-86.27.56-.44.92-.98 1.52-1.44a61 61 0 0 1 43.76-18.64 60.8 60.8 0 0 1 42.43 17.29c23.88 23.35 24.6 62.26 1.62 86.49-.58.46-1 1.18-1.62 1.65a60.5 60.5 0 0 1-62.33 15.34 61.6 61.6 0 0 1-23.9-14.42"/>
  <path fill="#40b5ff" fill-rule="nonzero" d="M440.27 916.43c3.34-30.97 29.64-54.7 60.6-54.7 33.44 0 60.96 27.67 60.96 61.3 0 3.31-.26 6.65-.8 9.93-4.06 30.26-30.02 53.08-60.38 53.08q-4.19 0-8.34-.58a62 62 0 0 1-10.62-2.33c-27.98-9.13-45.56-37.42-41.42-66.7"/>
  <path fill="#ff7c00" fill-rule="nonzero" d="M1431.97 1227.98c-31.44-11.37-48.06-46.7-36.84-78.35l.24-.16a60.8 60.8 0 0 1 57.08-40.5 61 61 0 0 1 20.78 3.7 61.3 61.3 0 0 1 36.78 78.5l.08-.2c-11 30.97-44.88 47.84-76.04 37.87a7 7 0 0 1-2.08-.87"/>
  <path fill="#5971f2" fill-rule="nonzero" d="M537.87 783.2a61.6 61.6 0 0 1-27.26-51.13c0-33.68 27.58-61.42 61.08-61.42 11 0 21.78 2.98 31.22 8.63 28.3 17.98 36.94 56.14 19.16 84.66l-.22-.06a60.8 60.8 0 0 1-51.58 28.71 60.7 60.7 0 0 1-32.4-9.39"/>
  <path fill="#f20c51" fill-rule="nonzero" d="M1419.23 970.8q-.15-2.22-.16-4.44c0-31.96 24.88-58.84 56.58-61.13a62 62 0 0 1 4.72-.18c31.68 0 58.28 24.93 60.5 56.68q.18 2.38.18 4.77c0 33.6-27.5 61.25-60.92 61.25-6.32 0-12.62-.98-18.64-2.94a62 62 0 0 1-42.26-54"/>
  <path fill="#5324b3" fill-rule="nonzero" d="M662.53 617.75a61.6 61.6 0 0 1-9.46-32.8c0-33.66 27.54-61.33 61-61.33 19.9 0 38.58 9.77 49.98 26.16a61.35 61.35 0 0 1-16.96 85.04c-16.16 10.94-35.4 12.87-52.52 7.34a60.5 60.5 0 0 1-32.04-24.41"/>
  <path fill="#ff7cff" fill-rule="nonzero" d="M1369.4 797.3a61.24 61.24 0 0 1 25.04-82.83 60.6 60.6 0 0 1 28.77-7.26 61 61 0 0 1 53.84 32.52c15.6 29.72 4.28 67.08-25.14 83.03a61.2 61.2 0 0 1-47.42 4.22 60.3 60.3 0 0 1-35.08-29.68"/>
  <path fill="#5324b3" fill-rule="nonzero" d="M843.7 518.71c-5.3-33.24 17.44-64.99 50.46-70.5 33-5.37 64.56 17.51 69.94 50.7q.83 4.98.82 10.07c0 29.96-21.88 55.72-51.3 60.43l.2.06a61 61 0 0 1-28.48-2.12 62.2 62.2 0 0 1-41.64-48.64"/>
  <path fill="#9b54e6" fill-rule="nonzero" d="M1049.38 503.05c8.52-32.58 42.12-52.37 74.54-43.94 32.36 8.59 52.04 42.35 43.64 74.92-6.98 26.89-31.32 45.8-58.94 45.8-5.24 0-10.44-.7-15.5-2.02-1.24-.18-2.4-.56-3.36-.86-30.64-9.94-48.48-42.6-40.38-73.9"/>
  <path fill="#ff7cff" fill-rule="nonzero" d="M1253.96 658.59c-26.22-20.91-30.78-59.78-10.08-86.25a60.9 60.9 0 0 1 47.78-23.24 60.7 60.7 0 0 1 37.9 13.29c26.24 20.91 30.8 59.78 10.12 86.24-20.84 26.3-59.48 30.8-85.72 9.96"/>
</svg>
